<?xml version="1.0" encoding="utf-8"?>
<!-- Generator: Adobe Illustrator 26.5.0, SVG Export Plug-In . SVG Version: 6.00 Build 0)  -->
<svg version="1.1" id="Layer_1" xmlns="http://www.w3.org/2000/svg" xmlns:xlink="http://www.w3.org/1999/xlink" x="0px" y="0px"
	 viewBox="0 0 20.5 19.5" style="enable-background:new 0 0 20.5 19.5;" xml:space="preserve">
<style type="text/css">
	.st0{fill:#FEF952;}
	.st1{fill:#FEF952;stroke:#FEF953;}
</style>
<g id="Group_18958" transform="translate(-2383.146 -5240)">
	<path id="star_FILL0_wght400_GRAD0_opsz48" class="st0" d="M2389.4,5256.3l4-2.4l4,2.4l-1.1-4.6l3.5-3.1l-4.7-0.4l-1.8-4.3
		l-1.8,4.3l-4.7,0.4l3.5,3.1L2389.4,5256.3z M2387.1,5259.5l1.7-7.2l-5.6-4.8l7.4-0.6l2.9-6.8l2.9,6.8l7.4,0.6l-5.6,4.8l1.7,7.2
		l-6.3-3.8L2387.1,5259.5z"/>
	<path id="Path_11556" class="st1" d="M2388.9,5256.7l4.5-2.6c0,0,4.6,2.9,4.7,2.6s-1.3-5.1-1.3-5.1l4-3.6l-5.1-0.2l-2.3-5l-2.3,4.8
		l-5.2,0.5l4,3.6L2388.9,5256.7z"/>
</g>
</svg>
